<svg xmlns="http://www.w3.org/2000/svg" viewBox="0 0 3397.98 3255.79"><defs><style>.cls-1{fill:#fff;}.cls-2{fill:#241f21;}.cls-3{fill:#232122;}</style></defs><g id="Snakes"><path class="cls-1" d="M2351.91,1918.49c-8.92,4.46-39.06-20.37-101.55-19-50.21,1.12-83.69,26.78-92.62,19.54s16.74-49.66,82.58-55.26S2360.84,1914,2351.91,1918.49Z" transform="translate(-301.01 -372.11)"/><path class="cls-1" d="M2280.61,2047.29c69.25.07,79.52-28.66,95.69-28.66s16.19,51.9-29.85,79.79-109.91,27.71-148.14-12.78-43.23-72-26.49-72S2198.59,2047.19,2280.61,2047.29Z" transform="translate(-301.01 -372.11)"/><path class="cls-1" d="M2386.11,2394.28C2310.31,2586.59,2177.6,2744,1981,2744c-333.66,0-495.46-462-495.46-759.91,0-86,13.59-168.8,40.91-243,51.27,1.08,167.92,5,166.77,19-1.5,17.86-181.53,58.77-181.53,165.15s122.5,115.32,181.53,115.32c72.64,0,160.68-34.24,160.68-81.1s-136.13-104.15-248.47-53.55c-53.57,25.29,17.86-66.22,117.53-62.5s146.56,81.09,172.6,67,56.53-176.31-87-231.36c-96.94-37.16-182.34-45.51-227.6-47,81-123.61,214-204.67,400.08-204.67,166.93,0,299.83,79.55,383.64,204.55-91.86,11.13-339.09,53.29-336.66,184.74,3,161.44,0,287.16,0,287.16s-170.37-17.84-167.39,94.48c0,60.26,166.27-1.85,166.27,70.3,0,32-6.31,56.54-35.34,56.54-21.76,0-27.8-10.17-62.11-10.41-41.1-.29-134.86,55.4-141.18,93.34-5.72,34.28,10.37,23.24,361.83,22.35a5,5,0,0,1,4.45,7.3c-18.39,35.22-52.79,70.43-306.89,50.94a10,10,0,0,0-10.57,11.85c8.06,39.69,42.45,85.89,138.54,77.19,106.7-9.67,79.17,74.4,136.44,63.24C2155.07,2632.44,2303.93,2561.24,2386.11,2394.28Z" transform="translate(-301.01 -372.11)"/><path class="cls-1" d="M1657.81,2735a3.55,3.55,0,0,0-3.48,5.56c16.25,22.64,60.33,97.95-30.44,147.71-80.7,44.25-127.46,68.3-145.9,77.61a3.32,3.32,0,0,0,.93,6.24c22.44,3.83,77.77,14.31,121.17,31.09,42.62,16.48,77.43,31.44,91.49,37.58a9.86,9.86,0,0,0,11.52-2.7c19.65-23.5,92.74-114.91,93.38-175.11C1797.2,2796.33,1723.51,2745.07,1657.81,2735Z" transform="translate(-301.01 -372.11)"/><path class="cls-1" d="M891,3245.68l-2.44-.51-3.46-1.5c1.26.53,2.63,1,4.09,1.48h0C889.82,3245.33,890.42,3245.51,891,3245.68Z" transform="translate(-301.01 -372.11)"/><path d="M1069.77,3264.85c-6-3.17-51,1.79-52.22,23.52s26.74,24,44.89,9.29C1080.17,3283.31,1075.79,3268,1069.77,3264.85Z" transform="translate(-301.01 -372.11)"/><path class="cls-2" d="M1017.55,3288.37c-1.27,21.72,26.74,24,44.89,9.29,17.73-14.35,13.35-29.66,7.33-32.81S1018.81,3266.64,1017.55,3288.37Z" transform="translate(-301.01 -372.11)"/><path class="cls-2" d="M891,3245.68l-2.44-.51-3.46-1.5c1.26.53,2.63,1,4.09,1.48h0C889.82,3245.33,890.42,3245.51,891,3245.68Z" transform="translate(-301.01 -372.11)"/><path class="cls-1" d="M970.64,3208.4l.1.33c-25.59.57-137.35-4-135-128.54,2.37-127.75,238.68-28.61,281.91-9.39a2,2,0,0,0,2.46-3c-33.31-48.48-61.12-122.37-61.59-184.57a6,6,0,0,0-5.09-5.85c-293.14-45.5-321.86,99-324.81,170.41-3,71.79,30.88,125.36,77.74,164.41,18.73,15.61,50.51,26,82.28,33l2.44.51.11,0c4.07.86,8.14,1.66,12.18,2.21,1.78.24,3.55.43,5.31.56h.05a420.79,420.79,0,0,0,42.56,2.82h.35a262.28,262.28,0,0,0,33.18-1.35l.4,0q15.57-1.38,29.27-2.76l4.93-.51c9.75-1,18.79-2,27.2-3l4.16-.49,2-.25,6-.74,3.84-.49,3.75-.49,2.66-.35,5.09-.69,4.89-.69,6.57-1,4-.6,1.88-.29c39.17-6.1,56.87-11.31,70-14.12h.08C1164.11,3205.24,1005.53,3106.41,970.64,3208.4Zm100.14,16.74c-6.14,5.23-59.42,11.34-66.61-13.47s24.64-34.78,49.49-22.57C1078,3201,1076.92,3219.91,1070.78,3225.14Z" transform="translate(-301.01 -372.11)"/><path class="cls-1" d="M1062.44,3297.66c17.73-14.35,13.35-29.66,7.33-32.81s-51,1.79-52.22,23.52S1044.29,3312.35,1062.44,3297.66Z" transform="translate(-301.01 -372.11)"/><path class="cls-3" d="M1529.51,447.07Z" transform="translate(-301.01 -372.11)"/><path d="M1381.82,3404.88c-21.32,4.36-27.55-23-15.61-43.09,11.67-19.61,27.45-17.46,31.43-11.95S1403.15,3400.53,1381.82,3404.88Z" transform="translate(-301.01 -372.11)"/><path class="cls-1" d="M1546.24,3044.84c-285.3-69.18-319.52-229.87-222.8-352.62,56.46-71.66,188.2-98.19,292-79.22-71.43-73.64-340.35-142.84-468.67,60.25s-16.74,476.49,313.56,499.92,363.78,322.49,185.23,352.62c-86.12,14.53-146.18-19-177.42-85.92,96-49.09-24.51-191.93-42.54-186.63v.08c-1.14,22-7.4,57.46-.48,180.64a146.85,146.85,0,0,0,20.28,66.64c47.1,79.45,108.45,117.6,170,125.65,0,0,0,0,0,0,117.16,15.33,235-78.48,256.69-204.23C1906.68,3221.15,1756.92,3095.93,1546.24,3044.84Zm-86.59,362.32c-25.58-3.56-27.16-57.17-22.86-64s22.84-10.55,38.12,11.8C1490.55,3377.82,1485.23,3410.72,1459.65,3407.16Z" transform="translate(-301.01 -372.11)"/><path class="cls-1" d="M1381.82,3404.88c-21.32,4.36-27.55-23-15.61-43.09,11.67-19.61,27.45-17.46,31.43-11.95S1403.15,3400.53,1381.82,3404.88Z" transform="translate(-301.01 -372.11)"/><path class="cls-2" d="M826.39,2823.55c-22.71,2.2-30.31-11.8-28.23-18.25s37.61-34.44,53.73-19.82S849.63,2821.32,826.39,2823.55Z" transform="translate(-301.01 -372.11)"/><path class="cls-2" d="M826.39,2823.55c-22.71,2.2-30.31-11.8-28.23-18.25s37.61-34.44,53.73-19.82S849.63,2821.32,826.39,2823.55Z" transform="translate(-301.01 -372.11)"/><path class="cls-2" d="M826.39,2823.55c-22.71,2.2-30.31-11.8-28.23-18.25s37.61-34.44,53.73-19.82S849.63,2821.32,826.39,2823.55Z" transform="translate(-301.01 -372.11)"/><path class="cls-1" d="M1367.87,2288.26c-52.19-88.76-85.93-106.76-173.34-106.76S989.57,2299,875,2294.58s-265.21-122.38-345.54-119.4-190.46,101.91-189,224.67,89.26,270.78,212.75,265.57,420.32-231.35,280.46,29.76c-96.37-48.31-145.12,133.69-130.19,145.09l.07-.07c.56-.38,1.17-.77,1.78-1.17l.93-.6c18.79-11.9,52-29.74,141.24-103.08.64-.55,1.31-1.09,2-1.62l9-9.17s0,0,.07-.07h0l70.09-71.41v0c20.7-43,27.39-94.57-24.29-133.43-104.89-78.86-212.75,14.88-313.18,11.15s-104.15-112.32-102.67-134.65,29.38-148.77,239.35-37.19,213.36,72.87,326,8.18c139.3-80,218-61.74,336.25,29.77C1434.07,2428.86,1454.9,2436.31,1367.87,2288.26ZM769.62,2777.69c-8,.57-22-12.18-13-37.71,9.18-26.13,38.86-41.31,51.12-18.6S777.66,2777.1,769.62,2777.69Z" transform="translate(-301.01 -372.11)"/><path class="cls-1" d="M826.39,2823.55c-22.71,2.2-30.31-11.8-28.23-18.25s37.61-34.44,53.73-19.82S849.63,2821.32,826.39,2823.55Z" transform="translate(-301.01 -372.11)"/><path class="cls-2" d="M1074,859.47c-21.44,3.77-36.56-38.81-34.86-45.43s15.59-14.35,33.62-.37C1091.21,828,1095.43,855.73,1074,859.47Z" transform="translate(-301.01 -372.11)"/><path class="cls-2" d="M1074,859.47c-21.44,3.77-36.56-38.81-34.86-45.43s15.59-14.35,33.62-.37C1091.21,828,1095.43,855.73,1074,859.47Z" transform="translate(-301.01 -372.11)"/><path class="cls-2" d="M1074,859.47c-21.44,3.77-36.56-38.81-34.86-45.43s15.59-14.35,33.62-.37C1091.21,828,1095.43,855.73,1074,859.47Z" transform="translate(-301.01 -372.11)"/><path class="cls-1" d="M1395.42,1615.21c-148.86,14.26-242.92,44.28-317.33-148.36-46.82-121.19-76.63-155.48-263-173-236.73-22.23-193.21-139.52-182.56-159.19s71.76-109.53,158.68-59.08S905.5,1160,990.57,1153.29c64.46-5.08,72.7-93.21,78.12-140.59v0l-21.16-97.79v0h0a.64.64,0,0,0,0-.09l-2.72-12.56c-.25-.79-.53-1.6-.78-2.4-36.33-109.64-54.9-142.46-64.43-162.55-.17-.35-.32-.69-.47-1-.31-.66-.61-1.32-.89-1.94l0-.1c-18.71,1.68-74.6,181.61,32.68,192.19-27.26,203.45-78.25,85.38-179.92,15.08s-254.89,8-321.64,111-26.47,245.44,39.9,290.84,237.17,25.64,336.43,83,165.78,248.87,214.85,279.84,126.59,36.17,218.1-11C1471.2,1616.4,1449.6,1611.58,1395.42,1615.21Zm-393-725.11c-22.49,12.66-39.49-16-33.32-43,6-26.38,24.66-29.7,31.17-24.93S1024.9,877.4,1002.41,890.1Z" transform="translate(-301.01 -372.11)"/><path class="cls-1" d="M1074,859.47c-21.44,3.77-36.56-38.81-34.86-45.43s15.59-14.35,33.62-.37C1091.21,828,1095.43,855.73,1074,859.47Z" transform="translate(-301.01 -372.11)"/><path class="cls-1" d="M389,1645.94l.09,0,.32-.55C389.23,1645.55,389.09,1645.74,389,1645.94Z" transform="translate(-301.01 -372.11)"/><path class="cls-1" d="M360.7,1610.21c1.24-3.63,2.5-7.27,3.74-10.9C362.84,1603.49,361.61,1607.18,360.7,1610.21Z" transform="translate(-301.01 -372.11)"/><path class="cls-2" d="M389,1645.94l.09,0,.32-.55C389.23,1645.55,389.09,1645.74,389,1645.94Z" transform="translate(-301.01 -372.11)"/><path class="cls-1" d="M389.36,1645.34Z" transform="translate(-301.01 -372.11)"/><path d="M479.27,1589.72a87.85,87.85,0,0,0-77.81,38q-6,8.82-12.1,17.63l-5.74,13.08a8.43,8.43,0,0,1,.79,4.3l0,2.68.13,1.51v2c-.13.82-.22,1.68-.27,2.53-10.13,115-20.66,151.26-25.32,173-.07.38-.16.74-.22,1.08-.14.72-.28,1.43-.42,2.1a1.06,1.06,0,0,0,.3.1c.12-.56.22-1.14.34-1.74.07-.34.16-.7.23-1.08,4.66-21.74,15.19-58,25.32-173a189.76,189.76,0,0,1,3.44-20.36c1.8-6.87,9.67-17.51,13.69-23.39,17.46-25.44,55.84-39.34,86.65-37.45l8.7.53,3.81-.22Zm-95.68,68.64v.13l0-.07Z" transform="translate(-301.01 -372.11)"/><path class="cls-2" d="M432.1,1748.66c-14.32,17.76-29.64,13.39-32.79,7.38s1.73-51,23.46-52.24S446.79,1730.51,432.1,1748.66Z" transform="translate(-301.01 -372.11)"/><path class="cls-2" d="M432.1,1748.66c-14.32,17.76-29.64,13.39-32.79,7.38s1.73-51,23.46-52.24S446.79,1730.51,432.1,1748.66Z" transform="translate(-301.01 -372.11)"/><path class="cls-2" d="M432.1,1748.66c-14.32,17.76-29.64,13.39-32.79,7.38s1.73-51,23.46-52.24S446.79,1730.51,432.1,1748.66Z" transform="translate(-301.01 -372.11)"/><path class="cls-2" d="M432.1,1748.66c-14.32,17.76-29.64,13.39-32.79,7.38s1.73-51,23.46-52.24S446.79,1730.51,432.1,1748.66Z" transform="translate(-301.01 -372.11)"/><path class="cls-2" d="M432.1,1748.66c-14.32,17.76-29.64,13.39-32.79,7.38s1.73-51,23.46-52.24S446.79,1730.51,432.1,1748.66Z" transform="translate(-301.01 -372.11)"/><path class="cls-1" d="M1077.25,1912.78c-267.08,83.31-380.89,62.48-328.08-151s-96.7-273-232.84-266.32c-100.66,5-138.68,70.5-151.67,104.32l-3.73,10.9q-7.38,21.51-14.74,43c-17.33,5.86-26.79,14.58-32.24,21.72-27.29,35.7-11,106.34,44.64,172.81v-.09c0-.12.05-.24.07-.36.12-.56.22-1.14.34-1.74.07-.34.16-.7.23-1.08,4.66-21.74,15.19-58,25.32-173a189.76,189.76,0,0,1,3.44-20.36c1.8-6.87,9.67-17.51,13.69-23.39,17.46-25.44,55.84-39.34,86.65-37.45l8.7.53,4,.24h0c71.53,1.71,146.87,65.36,128.32,182.92-26,165.16,31.24,315.42,206.82,326.59s150.27-75.88,288.63-87,217.23,90,217.23,90S1344.31,1829.46,1077.25,1912.78ZM323.54,1740c-12.21-24.86-2.27-56.66,22.54-49.52s18.73,60.46,13.52,66.61S335.5,1764.27,323.54,1740Z" transform="translate(-301.01 -372.11)"/><path class="cls-1" d="M432.1,1748.66c-14.32,17.76-29.64,13.39-32.79,7.38s1.73-51,23.46-52.24S446.79,1730.51,432.1,1748.66Z" transform="translate(-301.01 -372.11)"/><path class="cls-1" d="M1669.78,1130.41c-129-38.45-250,136.12-321.37,0s176.31-175.2,296.82-178.56,369.37-168.48,183-460.85-361.54,44.64-438.55,59.14a78.16,78.16,0,0,0-18.52,5.58c-50.63-87.34-189.45,28-184.39,45.77h.09c22,1.33,57.38,7.91,180.58,2.1h0l21.16-2.45.13,0c21.07-2.73,56-8,97.08-16.93a855.74,855.74,0,0,0,96.13-27l20.06-7.38,0,0h.07c53.4-20.23,147.23,22.31,150.2,149.92,3.36,142.84-222,151-399.47,153s-238.8,187.64-180.77,358.76S1350.4,1473,1473.83,1341.3s216-155.1,439.22-1.12C1829.36,1215.2,1785.83,1165,1669.78,1130.41ZM1341,568.36c-3.79,25.54-57.41,26.65-64.2,22.28s-10.35-22.93,12.13-38C1311.94,537.2,1344.8,542.81,1341,568.36Z" transform="translate(-301.01 -372.11)"/><path d="M1338,646.16c4.16,21.36-23.29,27.34-43.24,15.23-19.5-11.85-17.21-27.61-11.66-31.54S1333.87,624.8,1338,646.16Z" transform="translate(-301.01 -372.11)"/><path class="cls-1" d="M1294.8,661.39c-19.5-11.85-17.21-27.61-11.66-31.54s50.73-5.05,54.9,16.31S1314.75,673.5,1294.8,661.39Z" transform="translate(-301.01 -372.11)"/><path class="cls-1" d="M2342.19,2735a3.55,3.55,0,0,1,3.48,5.56c-16.25,22.64-60.33,97.95,30.44,147.71,80.7,44.25,127.46,68.3,145.9,77.61a3.32,3.32,0,0,1-.93,6.24c-22.44,3.83-77.77,14.31-121.17,31.09-42.62,16.48-77.43,31.44-91.49,37.58a9.86,9.86,0,0,1-11.52-2.7c-19.65-23.5-92.74-114.91-93.38-175.11C2202.8,2796.33,2276.49,2745.07,2342.19,2735Z" transform="translate(-301.01 -372.11)"/><path class="cls-1" d="M3114.86,3243.67l-3.46,1.5-2.44.51A50.75,50.75,0,0,0,3114.86,3243.67Z" transform="translate(-301.01 -372.11)"/><path class="cls-2" d="M2937.56,3297.66c-17.73-14.35-13.35-29.66-7.33-32.81s51,1.79,52.22,23.52S2955.71,3312.35,2937.56,3297.66Z" transform="translate(-301.01 -372.11)"/><path class="cls-2" d="M3114.86,3243.67l-3.46,1.5-2.44.51A50.75,50.75,0,0,0,3114.86,3243.67Z" transform="translate(-301.01 -372.11)"/><path class="cls-1" d="M3271.42,3047.81c-3-71.36-31.67-215.91-324.81-170.41a6,6,0,0,0-5.09,5.85c-.47,62.2-28.28,136.09-61.59,184.57a2,2,0,0,0,2.46,3c43.23-19.22,279.54-118.36,281.91,9.39,2.31,124.5-109.45,129.11-135,128.54l.1-.33c-34.89-102-193.47-3.16-190.8,15.09h.08c13.09,2.81,30.79,8,70,14.12l1.88.29,4,.6,6.57,1,4.89.69,5.09.69,2.66.35,3.75.49,3.84.49,6,.74,2,.25,4.16.49c8.41,1,17.45,2,27.2,3l4.93.51q13.71,1.38,29.27,2.76l.4,0a262.28,262.28,0,0,0,33.18,1.35h.35a420.79,420.79,0,0,0,42.56-2.82h.05c1.76-.13,3.53-.32,5.31-.56,4-.55,8.11-1.35,12.18-2.21l.11,0,2.44-.51c31.77-6.92,63.55-17.34,82.28-33C3240.54,3173.17,3274.4,3119.6,3271.42,3047.81Zm-275.59,163.86c-7.19,24.81-60.47,18.7-66.61,13.47s-7.18-24.1,17.12-36C2971.19,3176.89,3003,3186.87,2995.83,3211.67Z" transform="translate(-301.01 -372.11)"/><path class="cls-1" d="M2937.56,3297.66c-17.73-14.35-13.35-29.66-7.33-32.81s51,1.79,52.22,23.52S2955.71,3312.35,2937.56,3297.66Z" transform="translate(-301.01 -372.11)"/><path class="cls-3" d="M2470.49,447.07Z" transform="translate(-301.01 -372.11)"/><path d="M2618.18,3404.88c-21.33-4.35-19.81-49.52-15.82-55s19.76-7.66,31.43,11.95C2645.73,3381.85,2639.5,3409.24,2618.18,3404.88Z" transform="translate(-301.01 -372.11)"/><path class="cls-1" d="M2539.68,3173.17c330.3-23.43,441.9-296.82,313.56-499.92S2456,2539.36,2384.57,2613c103.79-19,235.53,7.56,292,79.22,96.72,122.75,62.5,283.44-222.8,352.62-210.68,51.09-360.44,176.31-325.84,377.18,21.66,125.75,139.53,219.56,256.69,204.23,0,0,0,0,0,0,61.53-8.05,122.88-46.2,170-125.65a146.85,146.85,0,0,0,20.28-66.64c6.92-123.18.66-158.6-.48-180.64v-.08c-18-5.3-138.5,137.54-42.54,186.63-31.24,67-91.3,100.45-177.42,85.92C2175.9,3495.66,2209.38,3196.6,2539.68,3173.17ZM2525.09,3355c15.28-22.35,33.81-18.63,38.12-11.8s2.72,60.44-22.86,64S2509.45,3377.82,2525.09,3355Z" transform="translate(-301.01 -372.11)"/><path class="cls-1" d="M2618.18,3404.88c-21.33-4.35-19.81-49.52-15.82-55s19.76-7.66,31.43,11.95C2645.73,3381.85,2639.5,3409.24,2618.18,3404.88Z" transform="translate(-301.01 -372.11)"/><path class="cls-2" d="M3173.61,2823.55c-23.24-2.23-41.63-23.46-25.5-38.07s51.63,13.32,53.73,19.82S3196.32,2825.75,3173.61,2823.55Z" transform="translate(-301.01 -372.11)"/><path class="cls-2" d="M3173.61,2823.55c-23.24-2.23-41.63-23.46-25.5-38.07s51.63,13.32,53.73,19.82S3196.32,2825.75,3173.61,2823.55Z" transform="translate(-301.01 -372.11)"/><path class="cls-2" d="M3173.61,2823.55c-23.24-2.23-41.63-23.46-25.5-38.07s51.63,13.32,53.73,19.82S3196.32,2825.75,3173.61,2823.55Z" transform="translate(-301.01 -372.11)"/><path class="cls-1" d="M3470.52,2175.18c-80.33-3-231,114.93-345.54,119.4s-232.1-113.08-319.51-113.08-121.15,18-173.34,106.76c-87,148-66.2,140.6-22.31,108.62,118.28-91.51,196.95-109.74,336.25-29.77,112.67,64.69,116,103.41,326-8.18s237.85,14.88,239.35,37.19-2.24,130.93-102.67,134.65-208.29-90-313.18-11.15c-51.68,38.86-45,90.47-24.29,133.43v0l70.09,71.41h0s.05.05.07.07l9,9.17c.64.53,1.31,1.07,2,1.62,89.23,73.34,122.45,91.18,141.24,103.08l.93.6c.61.4,1.22.79,1.78,1.17l.07.07c14.93-11.4-33.82-193.4-130.19-145.09-139.86-261.11,157-35,280.46-29.76S3658,2522.6,3659.48,2399.85,3550.88,2178.15,3470.52,2175.18Zm-278.21,546.2c12.26-22.71,41.94-7.53,51.12,18.6,9,25.53-5,38.28-13,37.71S3180.06,2744.13,3192.31,2721.38Z" transform="translate(-301.01 -372.11)"/><path class="cls-1" d="M3173.61,2823.55c-23.24-2.23-41.63-23.46-25.5-38.07s51.63,13.32,53.73,19.82S3196.32,2825.75,3173.61,2823.55Z" transform="translate(-301.01 -372.11)"/><path class="cls-2" d="M2926,859.47c-21.44-3.74-17.22-31.5,1.24-45.8,18-14,31.94-6.19,33.62.37S2947.45,863.24,2926,859.47Z" transform="translate(-301.01 -372.11)"/><path class="cls-2" d="M2926,859.47c-21.44-3.74-17.22-31.5,1.24-45.8,18-14,31.94-6.19,33.62.37S2947.45,863.24,2926,859.47Z" transform="translate(-301.01 -372.11)"/><path class="cls-2" d="M2926,859.47c-21.44-3.74-17.22-31.5,1.24-45.8,18-14,31.94-6.19,33.62.37S2947.45,863.24,2926,859.47Z" transform="translate(-301.01 -372.11)"/><path class="cls-1" d="M3490.69,1052.53c-66.75-103-220-181.36-321.64-111s-152.66,188.37-179.92-15.08c107.28-10.58,51.39-190.51,32.68-192.19l0,.1c-.28.62-.58,1.28-.89,1.94-.15.32-.3.66-.47,1-9.53,20.09-28.1,52.91-64.43,162.55-.25.8-.53,1.61-.78,2.4l-2.72,12.56a.64.64,0,0,0,0,.09h0v0l-21.16,97.79v0c5.42,47.38,13.66,135.51,78.12,140.59,85.07,6.69,112.45-27.25,199.38-77.69s148,39.41,158.68,59.08,54.17,137-182.56,159.19c-186.39,17.5-216.2,51.79-263,173-74.41,192.64-168.47,162.62-317.33,148.36-54.18-3.63-75.78,1.19,76.83,80,91.51,47.21,169,42,218.1,11s115.59-222.48,214.85-279.84,270.07-37.6,336.43-83S3557.47,1155.55,3490.69,1052.53Zm-491-230.37c6.51-4.77,25.12-1.45,31.17,24.93,6.17,27-10.83,55.67-33.32,43S2993.26,826.94,2999.74,822.16Z" transform="translate(-301.01 -372.11)"/><path class="cls-1" d="M2926,859.47c-21.44-3.74-17.22-31.5,1.24-45.8,18-14,31.94-6.19,33.62.37S2947.45,863.24,2926,859.47Z" transform="translate(-301.01 -372.11)"/><path class="cls-1" d="M3611.05,1645.94l-.09,0-.32-.55C3610.77,1645.55,3610.91,1645.74,3611.05,1645.94Z" transform="translate(-301.01 -372.11)"/><path class="cls-1" d="M3639.3,1610.21c-1.24-3.63-2.5-7.27-3.74-10.9C3637.16,1603.49,3638.39,1607.18,3639.3,1610.21Z" transform="translate(-301.01 -372.11)"/><path class="cls-2" d="M3611.05,1645.94l-.09,0-.32-.55C3610.77,1645.55,3610.91,1645.74,3611.05,1645.94Z" transform="translate(-301.01 -372.11)"/><path class="cls-1" d="M3610.64,1645.34Z" transform="translate(-301.01 -372.11)"/><path d="M3641.22,1845.55c-.06-.34-.15-.7-.22-1.08-4.66-21.75-15.19-58-25.32-173,0-.85-.14-1.71-.27-2.53v-2l.13-1.51.05-2.68a8.43,8.43,0,0,1,.79-4.3l-5.74-13.08q-6.07-8.82-12.1-17.63a87.85,87.85,0,0,0-77.81-38l-21.57,1.31,3.81.22,8.7-.53c30.81-1.89,69.19,12,86.65,37.45,4,5.88,11.89,16.52,13.69,23.39a189.76,189.76,0,0,1,3.44,20.36c10.13,115,20.66,151.27,25.32,173,.07.38.16.74.23,1.08.12.6.22,1.18.34,1.74a1.06,1.06,0,0,0,.3-.1C3641.5,1847,3641.36,1846.27,3641.22,1845.55Zm-24.84-187.13,0,.07v-.13Z" transform="translate(-301.01 -372.11)"/><path class="cls-2" d="M3600.69,1756c-3.15,6-18.47,10.38-32.79-7.38-14.69-18.15-12.4-46.15,9.33-44.86S3603.86,1750,3600.69,1756Z" transform="translate(-301.01 -372.11)"/><path class="cls-2" d="M3600.69,1756c-3.15,6-18.47,10.38-32.79-7.38-14.69-18.15-12.4-46.15,9.33-44.86S3603.86,1750,3600.69,1756Z" transform="translate(-301.01 -372.11)"/><path class="cls-2" d="M3600.69,1756c-3.15,6-18.47,10.38-32.79-7.38-14.69-18.15-12.4-46.15,9.33-44.86S3603.86,1750,3600.69,1756Z" transform="translate(-301.01 -372.11)"/><path class="cls-2" d="M3600.69,1756c-3.15,6-18.47,10.38-32.79-7.38-14.69-18.15-12.4-46.15,9.33-44.86S3603.86,1750,3600.69,1756Z" transform="translate(-301.01 -372.11)"/><path class="cls-2" d="M3600.69,1756c-3.15,6-18.47,10.38-32.79-7.38-14.69-18.15-12.4-46.15,9.33-44.86S3603.86,1750,3600.69,1756Z" transform="translate(-301.01 -372.11)"/><path class="cls-1" d="M3686.05,1675.39c-5.45-7.14-14.91-15.86-32.24-21.72q-7.38-21.5-14.74-43l-3.73-10.9c-13-33.82-51-99.37-151.67-104.32-136.14-6.71-285.67,52.81-232.84,266.32s-61,234.32-328.08,151S2657.92,2104,2657.92,2104s78.86-101.19,217.23-90,113.07,98.2,288.63,87,232.85-161.43,206.82-326.59c-18.55-117.56,56.79-181.21,128.32-182.92h0l4-.24,8.7-.53c30.81-1.89,69.19,12,86.65,37.45,4,5.88,11.89,16.52,13.69,23.39a189.76,189.76,0,0,1,3.44,20.36c10.13,115,20.66,151.27,25.32,173,.07.38.16.74.23,1.08.12.6.22,1.18.34,1.74,0,.12,0,.24.07.36v.09C3697,1781.73,3713.34,1711.09,3686.05,1675.39Zm-32.13,15.08c24.81-7.14,34.75,24.66,22.54,49.52-12,24.28-30.83,23.23-36.06,17.09S3629.11,1697.66,3653.92,1690.47Z" transform="translate(-301.01 -372.11)"/><path class="cls-1" d="M3600.69,1756c-3.15,6-18.47,10.38-32.79-7.38-14.69-18.15-12.4-46.15,9.33-44.86S3603.86,1750,3600.69,1756Z" transform="translate(-301.01 -372.11)"/><path class="cls-1" d="M2647.12,852.71c-177.42-2.08-402.83-10.2-399.47-153,3-127.61,96.8-170.15,150.2-149.92h.07l0,0,20.06,7.38a855.74,855.74,0,0,0,96.13,27c41,8.95,76,14.2,97.08,16.93l.13,0,21.16,2.45h0c123.2,5.81,158.56-.77,180.58-2.1h.09c5.06-17.75-133.76-133.11-184.39-45.77a78.16,78.16,0,0,0-18.52-5.58c-77-14.5-252.2-351.49-438.55-59.14s62.48,457.52,183,460.85,368.23,42.41,296.82,178.56-192.38-38.45-321.37,0c-116,34.59-159.58,84.79-243.27,209.77,223.18-154,315.8-130.55,439.22,1.12s243.7,41.29,301.72-129.83S2824.55,854.78,2647.12,852.71Zm63.94-300.08c22.48,15.08,18.92,33.65,12.13,38s-60.41,3.26-64.2-22.28S2688.06,537.2,2711.06,552.63Z" transform="translate(-301.01 -372.11)"/><path d="M2705.2,661.39c-19.95,12.11-47.4,6.13-43.24-15.23s49.35-20.25,54.9-16.31S2724.7,649.54,2705.2,661.39Z" transform="translate(-301.01 -372.11)"/><path class="cls-1" d="M2705.2,661.39c-19.95,12.11-47.4,6.13-43.24-15.23s49.35-20.25,54.9-16.31S2724.7,649.54,2705.2,661.39Z" transform="translate(-301.01 -372.11)"/></g></svg>