<svg id="Ebene_1" data-name="Ebene 1" xmlns="http://www.w3.org/2000/svg" viewBox="0 0 3766.68 3766.31"><defs><style>.cls-1{fill:#fff;}</style></defs><path class="cls-1" d="M2000,1029.78c-534.88-1-970.34,433.1-970.89,967.83-.55,534,432.8,970.17,964.65,970.92,538.22.75,973.78-432.05,974.08-967.93C2968.14,1465,2535.24,1030.76,2000,1029.78Zm-.11,1598.35c-347.85.76-631.27-283-630.12-630.79,1.14-345.59,283.09-627.41,627.47-627.15,347.5.26,629.38,281,630.1,627.66S2346.44,2627.37,1999.89,2628.13ZM3232.16,988c-3.08-126.8-104.67-224.84-230.33-222.26-125.94,2.58-226.69,106.44-223.27,230.15,3.48,125.69,107.27,225.85,231,222.9C3135.57,1215.81,3235.18,1112.54,3232.16,988Zm0,0c-3.08-126.8-104.67-224.84-230.33-222.26-125.94,2.58-226.69,106.44-223.27,230.15,3.48,125.69,107.27,225.85,231,222.9C3135.57,1215.81,3235.18,1112.54,3232.16,988ZM2000,1029.78c-534.88-1-970.34,433.1-970.89,967.83-.55,534,432.8,970.17,964.65,970.92,538.22.75,973.78-432.05,974.08-967.93C2968.14,1465,2535.24,1030.76,2000,1029.78Zm-.11,1598.35c-347.85.76-631.27-283-630.12-630.79,1.14-345.59,283.09-627.41,627.47-627.15,347.5.26,629.38,281,630.1,627.66S2346.44,2627.37,1999.89,2628.13ZM3882,1474.67c-2.57-175.19-2.58-351-40.15-523.48-82.59-379.13-301.43-639-673.2-763.46C3002.25,132,2829.16,119.89,2656,118.8q-660-4.14-1320,0c-139,.77-278.25,9.77-414.4,43.07C554.33,251.68,305.21,470.87,186,832.77c-52.86,160.47-66.36,326.91-67.39,493.72q-4.18,672.71-.08,1345.45c.7,136.93,10.36,274,43.43,407.91,89,360.72,304.62,607.32,658.63,728.33,167.09,57.12,341.18,69.63,515.45,71.27q597.79,5.61,1195.66,3.09c173.06-.57,346.55-4,517.06-40.22,302.08-64.1,536.9-222.77,686.77-496.4,94.85-173.17,131.55-362.63,137.6-557.78l9.48-787.37C3882.6,1825.4,3884.6,1650,3882,1474.67Zm-338,495.18-8.67,762c-2.27,109.63-13.63,218.53-46.47,323.83-76.06,243.86-242.71,389.72-488.79,448.73-130.21,31.22-263.41,36-395.94,36.19-451.69.64-903.42-.53-1355.06-6.7-97.67-1.34-197.52-17-292-42.33-253.32-67.77-403.74-238.92-463.95-491.8-33-138.6-35.92-280.43-36.88-421.48q-3.94-581.92.27-1163.89c1-136.76,4-274.16,35.34-408.82,68.67-295.26,267.44-485.95,569.45-522.25,183-22,368.71-26.12,553.33-28.42q468.68-5.83,937.47,2.05c137.69,2.21,276.87,9.12,412.36,31.85,310.29,52.06,514.26,264,550.36,577,21.49,186.28,22.14,375.11,28.51,562.92C3547.15,1742.27,3544,1856.11,3544,1969.85ZM3001.83,765.76c-125.94,2.58-226.69,106.44-223.27,230.15,3.48,125.69,107.27,225.85,231,222.9,126-3,225.61-106.27,222.59-230.79C3229.08,861.22,3127.49,763.18,3001.83,765.76ZM2000,1029.78c-534.88-1-970.34,433.1-970.89,967.83-.55,534,432.8,970.17,964.65,970.92,538.22.75,973.78-432.05,974.08-967.93C2968.14,1465,2535.24,1030.76,2000,1029.78Zm-.11,1598.35c-347.85.76-631.27-283-630.12-630.79,1.14-345.59,283.09-627.41,627.47-627.15,347.5.26,629.38,281,630.1,627.66S2346.44,2627.37,1999.89,2628.13Z" transform="translate(-116.66 -116.84)"/><path class="cls-1" d="M3882,1474.67c-2.57-175.19-2.58-351-40.15-523.48-82.59-379.13-301.43-639-673.2-763.46C3002.25,132,2829.16,119.89,2656,118.8q-660-4.14-1320,0c-139,.77-278.25,9.77-414.4,43.07C554.33,251.68,305.21,470.87,186,832.77c-52.86,160.47-66.36,326.91-67.39,493.72q-4.18,672.71-.08,1345.45c.7,136.93,10.36,274,43.43,407.91,89,360.72,304.62,607.32,658.63,728.33,167.09,57.12,341.18,69.63,515.45,71.27q597.79,5.61,1195.66,3.09c173.06-.57,346.55-4,517.06-40.22,302.08-64.1,536.9-222.77,686.77-496.4,94.85-173.17,131.55-362.63,137.6-557.78l9.48-787.37C3882.6,1825.4,3884.6,1650,3882,1474.67Zm-338,495.18-8.67,762c-2.27,109.63-13.63,218.53-46.47,323.83-76.06,243.86-242.71,389.72-488.79,448.73-130.21,31.22-263.41,36-395.94,36.19-451.69.64-903.42-.53-1355.06-6.7-97.67-1.34-197.52-17-292-42.33-253.32-67.77-403.74-238.92-463.95-491.8-33-138.6-35.92-280.43-36.88-421.48q-3.94-581.92.27-1163.89c1-136.76,4-274.16,35.34-408.82,68.67-295.26,267.44-485.95,569.45-522.25,183-22,368.71-26.12,553.33-28.42q468.68-5.83,937.47,2.05c137.69,2.21,276.87,9.12,412.36,31.85,310.29,52.06,514.26,264,550.36,577,21.49,186.28,22.14,375.11,28.51,562.92C3547.15,1742.27,3544,1856.11,3544,1969.85Z" transform="translate(-116.66 -116.84)"/><path class="cls-1" d="M2000,1029.78c-534.88-1-970.34,433.1-970.89,967.83-.55,534,432.8,970.17,964.65,970.92,538.22.75,973.78-432.05,974.08-967.93C2968.14,1465,2535.24,1030.76,2000,1029.78Zm-.11,1598.35c-347.85.76-631.27-283-630.12-630.79,1.14-345.59,283.09-627.41,627.47-627.15,347.5.26,629.38,281,630.1,627.66S2346.44,2627.37,1999.89,2628.13Z" transform="translate(-116.66 -116.84)"/><path class="cls-1" d="M3009.57,1218.81c-123.74,3-227.53-97.21-231-222.9-3.42-123.71,97.33-227.57,223.27-230.15,125.66-2.58,227.25,95.46,230.33,222.26C3235.18,1112.54,3135.57,1215.81,3009.57,1218.81Z" transform="translate(-116.66 -116.84)"/></svg>