<svg id="Ebene_1" data-name="Ebene 1" xmlns="http://www.w3.org/2000/svg" viewBox="0 0 3880 3790.88"><defs><style>.cls-1{fill:#fff;}</style></defs><path class="cls-1" d="M3939.18,605.42a473.27,473.27,0,0,0-12-106.09C3870,253.83,3643.39,85.54,3389.67,87.27c-502.76,3.43-1005.56.94-1508.35,1-428.59,0-857.18-1.91-1285.75,1C290.83,91.38,61,326.93,60.94,630q-.11,1364.45.6,2728.89c0,34.1,4.61,69,12.46,102.18,59.2,250.64,270.5,416.27,532.75,416.68q696.6,1.1,1393.22.21v-.17q19.18,0,38.38,0c459.29-.11,918.58.77,1377.86-.69,290.58-.92,525.55-250,524.69-531.34C3938.11,2432.32,3939.89,1518.87,3939.18,605.42ZM1417.63,3023.23c-.08,69.56-32.11,99.41-102,99.49q-153.51.2-307,0c-63.94-.16-94.24-30-94.3-93.6q-.33-335.8-.09-671.62,0-332,0-663.94c0-71.42,31-103.55,102-104q147.75-1,295.51,0c72.83.45,105.87,32.77,105.94,105.84Q1418.3,2359.29,1417.63,3023.23Zm-255.35-1551c-176.92-.21-319.95-139.45-321.52-313-1.59-174.55,144.75-316,326.74-315.75,178.37.21,322.09,142.19,321.08,317.17C1487.56,1335.28,1343.9,1472.46,1162.28,1472.24ZM3161.74,3025.67c0,70.23-27.48,97-97.68,97.06q-165,.14-330-.07c-56.34-.15-81.21-22.9-87.05-79.2a421.73,421.73,0,0,1-1.8-45.95c1.14-209.7,5-419.43,2.35-629.08-.93-73.15-11.34-147.72-29.07-218.73-22.09-88.43-86.11-141.66-176.85-154-92.58-12.56-176,8.78-235.89,87.42-57.41,75.38-77.84,163.86-78.74,255.68-2.26,230.19-.71,460.42-.78,690.63,0,68.29-24.37,93.15-91.48,93.25q-161.15.23-322.29-.06c-58.55-.17-84.44-25.93-84.45-84q-.18-681,0-1362.1c0-56.21,27-85.95,83.82-86.73q165-2.26,330,0c55.86.78,83.94,31.9,84.42,87,.24,27.68,0,55.35,0,92.29,67.53-90.84,148.68-147.87,249.38-174.94,134.74-36.21,270.35-38.52,404.89-.9,206.14,57.64,309.12,208.5,349.08,406.93,19.29,95.79,28.85,194.83,30.57,292.61C3164.49,2537.06,3161.93,2781.39,3161.74,3025.67Z" transform="translate(-60.91 -87.26)"/><path class="cls-1" d="M3939.18,605.42a473.27,473.27,0,0,0-12-106.09C3870,253.83,3643.39,85.54,3389.67,87.27c-502.76,3.43-1005.56.94-1508.35,1-428.59,0-857.18-1.91-1285.75,1C290.83,91.38,61,326.93,60.94,630q-.11,1364.45.6,2728.89c0,34.1,4.61,69,12.46,102.18,59.2,250.64,270.5,416.27,532.75,416.68q696.6,1.1,1393.22.21v-.17q19.18,0,38.38,0c459.29-.11,918.58.77,1377.86-.69,290.58-.92,525.55-250,524.69-531.34C3938.11,2432.32,3939.89,1518.87,3939.18,605.42ZM1417.63,3023.23c-.08,69.56-32.11,99.41-102,99.49q-153.51.2-307,0c-63.94-.16-94.24-30-94.3-93.6q-.33-335.8-.09-671.62,0-332,0-663.94c0-71.42,31-103.55,102-104q147.75-1,295.51,0c72.83.45,105.87,32.77,105.94,105.84Q1418.3,2359.29,1417.63,3023.23Zm-255.35-1551c-176.92-.21-319.95-139.45-321.52-313-1.59-174.55,144.75-316,326.74-315.75,178.37.21,322.09,142.19,321.08,317.17C1487.56,1335.28,1343.9,1472.46,1162.28,1472.24ZM3161.74,3025.67c0,70.23-27.48,97-97.68,97.06q-165,.14-330-.07c-56.34-.15-81.21-22.9-87.05-79.2a421.73,421.73,0,0,1-1.8-45.95c1.14-209.7,5-419.43,2.35-629.08-.93-73.15-11.34-147.72-29.07-218.73-22.09-88.43-86.11-141.66-176.85-154-92.58-12.56-176,8.78-235.89,87.42-57.41,75.38-77.84,163.86-78.74,255.68-2.26,230.19-.71,460.42-.78,690.63,0,68.29-24.37,93.15-91.48,93.25q-161.15.23-322.29-.06c-58.55-.17-84.44-25.93-84.45-84q-.18-681,0-1362.1c0-56.21,27-85.95,83.82-86.73q165-2.26,330,0c55.86.78,83.94,31.9,84.42,87,.24,27.68,0,55.35,0,92.29,67.53-90.84,148.68-147.87,249.38-174.94,134.74-36.21,270.35-38.52,404.89-.9,206.14,57.64,309.12,208.5,349.08,406.93,19.29,95.79,28.85,194.83,30.57,292.61C3164.49,2537.06,3161.93,2781.39,3161.74,3025.67Z" transform="translate(-60.91 -87.26)"/></svg>