<svg id="Ebene_1" data-name="Ebene 1" xmlns="http://www.w3.org/2000/svg" viewBox="0 0 3877.07 2878.32"><defs><style>.cls-1{fill:#fff;}</style></defs><path class="cls-1" d="M3935.49,2134c-.82-212.94-8.47-426-18.2-638.71-6.55-143-22.73-285.53-53.19-425.63-32.91-151.36-110.72-268.52-239-347.05-78.13-47.82-165-65.64-252.84-74.26-155.94-15.3-312.1-30.66-468.51-37.4l-6.8-.29c-273.66-11.7-547.56-17.11-821.35-25.19l-.12,7.92c-135.55,0-271.17-2.82-406.65.54l-2.13.05h0l-2,0c-239.54,6.15-479.16,12.93-718.43,26-138,7.5-276.45,20.41-412.65,44C331.7,698.92,197,825,140.09,1033c-23.19,84.84-37.89,173.6-45.26,261.62-16.16,192.95-31.89,386.42-35.28,579.93-3.65,208,2.11,416.58,13.12,624.36,7.81,147.49,28.6,294.45,48.31,440.94,16.29,121.07,64.31,228,149,314.45,89.13,91,198.67,134.76,319.75,147.14,158.89,16.24,317.9,33.16,477.26,41.82q300.81,16.35,602.26,19.17c267.79,2.41,535.69,1.7,803.44-3.71,211.39-4.28,422.76-15,633.85-28.08,119-7.38,238.45-18.65,355.73-40.08,191.81-35,325.41-153.11,385.36-348.82,28.2-92.05,40.12-190.48,52-287C3925,2548.85,3936.29,2341.4,3935.49,2134Zm-2334.6,500.65V1420.11l1015.75,607.2Z" transform="translate(-58.46 -585.46)"/><path class="cls-1" d="M3935.49,2134c-.82-212.94-8.47-426-18.2-638.71-6.55-143-22.73-285.53-53.19-425.63-32.91-151.36-110.72-268.52-239-347.05-78.13-47.82-165-65.64-252.84-74.26-155.94-15.3-312.1-30.66-468.51-37.4l-6.8-.29c-279.68-11.63-1080.72-20-1228.12-16.73l-2.13.05h0l-2,0c-239.54,6.15-479.16,12.93-718.43,26-138,7.5-276.45,20.41-412.65,44C331.7,698.92,197,825,140.09,1033c-23.19,84.84-37.89,173.6-45.26,261.62-16.16,192.95-31.89,386.42-35.28,579.93-3.65,208,2.11,416.58,13.12,624.36,7.81,147.49,28.6,294.45,48.31,440.94,16.29,121.07,64.31,228,149,314.45,89.13,91,198.67,134.76,319.75,147.14,158.89,16.24,317.9,33.16,477.26,41.82q300.81,16.35,602.26,19.17c267.79,2.41,535.69,1.7,803.44-3.71,211.39-4.28,422.76-15,633.85-28.08,119-7.38,238.45-18.65,355.73-40.08,191.81-35,325.41-153.11,385.36-348.82,28.2-92.05,40.12-190.48,52-287C3925,2548.85,3936.29,2341.4,3935.49,2134Zm-2334.6,500.65V1420.11l1015.75,607.2Z" transform="translate(-58.46 -585.46)"/></svg>