<svg id="Ebene_1" data-name="Ebene 1" xmlns="http://www.w3.org/2000/svg" viewBox="0 0 989.64 989.82"><defs><style>.cls-1{fill:#7fc8f8;}</style></defs><path class="cls-1" d="M994.19,499c.09,273.46-220.93,494.67-494.36,494.78C225.8,993.93,4.59,772.88,4.55,498.89,4.51,225.15,226.08,3.81,500,4,773.28,4.19,994.1,225.38,994.19,499Zm-29,.09c.38-256.68-208.3-465.63-465.42-466C243,32.73,34,241.31,33.67,498.31s207.85,466,464.84,466.53C755.82,965.36,964.85,756.79,965.24,499.13Z" transform="translate(-4.55 -4)"/><path class="cls-1" d="M600.59,774.13c24.52-36.52,61.06-46.56,100.6-47.71,32.89-1,64.64,5.25,91.06,27.29,17.22,14.35,25.75,32.94,26.59,56H174c-1.75-21.13,7.44-37.67,21.49-51.85,18.3-18.46,41.84-26.42,66.78-29.79,30.93-4.18,61.23-1.42,90.14,11.82,16.11,7.39,28.43,18.85,38.94,34,25.27-37.48,63.26-47.33,104.12-47.37S574.44,736,600.59,774.13Z" transform="translate(-4.55 -4)"/><path class="cls-1" d="M400.57,645.23h-19c-1.56-25.67-9.15-48.7-27.18-67.48s-40.73-27.52-66-29.61c0-21.7-2.37-43.1.55-63.75,4.47-31.66,30.13-54.16,61.71-58.22,2.6-.34,6.28,1.4,8.24,3.38,10.42,10.52,20.45,21.41,32.69,34.38,12.71-13.6,23.5-25.56,34.85-37a18.64,18.64,0,0,1,11-5c31.78-2.22,61.72-11.24,90.42-24.44,18.28-8.42,36-18.07,54-27.07,12.52-6.25,26.66-3.58,35.12,6.45,9.63,11.4,11.43,27.93,1.37,38.12-9.82,9.94-21.66,18.25-33.64,25.63A511.88,511.88,0,0,1,476.17,491c-5.59,1.84-7.81,4.52-7.63,10.59.44,14.89.38,29.81-.08,44.7-.09,2.72-2.43,6.81-4.76,7.79q-58.32,24.5-62.41,87.41A37.56,37.56,0,0,1,400.57,645.23Z" transform="translate(-4.55 -4)"/><path class="cls-1" d="M799,213.94H447.56v73.63c-8.89-4.89-16.44-8.71-23.56-13.21-1.66-1.05-2.58-4.41-2.6-6.72-.21-19.2-.4-38.42,0-57.61.27-14.15,10.15-22.66,25.66-22.68q80.44-.09,160.9,0,95.34,0,190.69,0c18.75,0,26.28,7.63,26.28,26.4,0,87.09-.34,174.18.32,261.26.12,15-11,25.26-24.23,25.26q-119.18-.09-238.37,0c-.49,0-1-.56-2.18-1.27,14.23-8.06,28-16.16,42.11-23.61,2.93-1.55,7.13-.92,10.75-.92q86.4-.07,172.81-.06c4.21,0,8.42-.38,12.93-.59Z" transform="translate(-4.55 -4)"/><path class="cls-1" d="M706.52,711.89c-38,.67-68.82-28.35-70.22-64.65-1.68-43.43,29.57-73.64,68.6-73.67,39.52,0,68.49,28.66,69.49,69.13C775.34,680.86,745,711.22,706.52,711.89Z" transform="translate(-4.55 -4)"/><path class="cls-1" d="M287.3,711.89c-38.91.18-69.78-30-69.91-68.3S249,573.06,287,573.17c37.53.11,69,31.36,69.18,68.61C356.34,681.62,326.77,711.71,287.3,711.89Z" transform="translate(-4.55 -4)"/><path class="cls-1" d="M495.35,711.89c-39.54-.2-68.26-29.68-68.47-69.38-.21-40.62,31.66-68.62,69.32-69.12,38.69-.5,68.87,31.53,68.62,70.91C564.59,682.49,534.16,712.09,495.35,711.89Z" transform="translate(-4.55 -4)"/><path class="cls-1" d="M393.52,291.49c35.35.25,62.69,28.48,62.35,64.38-.33,34.31-29.34,61.94-64.19,61.69-36.83-.27-64.51-32.58-62.25-67.51C331.52,317.68,358.75,291.24,393.52,291.49Z" transform="translate(-4.55 -4)"/></svg>