<svg id="Ebene_1" data-name="Ebene 1" xmlns="http://www.w3.org/2000/svg" viewBox="0 0 989.43 989.4"><defs><style>.cls-1{fill:#7fc8f8;}</style></defs><path class="cls-1" d="M499.62,993.49C225.68,993.57,4.55,772.56,4.55,498.67,4.54,225.06,226.12,3.86,500,4.09,773.19,4.31,994,225.49,994,499S773,993.4,499.62,993.49ZM965,499.15c.6-256.44-208.06-465.46-465.17-466C243.51,32.69,34.69,240.47,33.67,497.05c-1,257.29,207.26,466.87,464.59,467.47S964.42,756.85,965,499.15Z" transform="translate(-4.55 -4.09)"/><path class="cls-1" d="M542.48,642.76c17.29,3.31,20,8.62,12.64,22.42,2.64,2.14,5.42,4.33,8.13,6.61,26.57,22.32,37.45,50.93,32.18,85C590.75,787,571.28,804.51,542.55,812c-25,6.54-50.49,6.75-75.87,2.26-54.9-9.7-80.29-58.12-57.66-109.33,7.28-16.47,18.51-29.63,32.87-40.08-6.38-15.42-4.48-18.81,12.36-21.92-2.46-8.21-7.12-12.42-16.08-14.3-81.82-17.1-121.7-69.06-133.51-147.81C291.84,395.36,327.44,329.65,390.85,276c24.35-20.63,51.82-35.53,82.62-43.92,7.21-2,10.49-5.24,10.24-12.89-.54-16.52-.62-33.07-.69-49.6,0-6.84-3.15-8.93-9.83-8.8-18.86.38-37.75.47-56.61,0a106.29,106.29,0,0,1-23.42-3.47c-12.69-3.24-14.87-7.44-12.42-22.34H394.1c26.16,0,52.31.22,78.46-.09,3.52,0,10-2.69,10-4.07-.07-6.31,4.48-14.2-4.12-18.68-18.94-9.86-22.51-27.17-22.52-46.28,0-7.57,3.4-10.3,11.05-10.15,21.52.4,43,.08,64.56.16,9.75,0,12.81,3.38,12.42,13.41-.6,14.92-5.63,28.47-17.42,37.56-10.16,7.83-9.52,16.83-7.74,28.14h99c3,12.36,1.05,17.43-9.59,20.84a100.2,100.2,0,0,1-26.13,4.91c-17.85.74-35.76.67-53.61,0-9.58-.35-14.67,1.51-14.29,12.57.47,13.53-.44,27.1-1,40.65-.31,7.49,2.83,9.52,10.16,8.88,23.63-2.09,46.91-.33,69.47,7.92,53.35,19.49,75.26,71.5,51.81,123.14-12.58,27.7-32.27,49.86-54.24,70.26-15,14-30.27,27.7-45.37,41.6a18.71,18.71,0,0,0-3.49,23.62c5,8.61,3.59,16.62-3.84,24.38a11.06,11.06,0,0,0-2.46,7c-.2,16.22-.14,32.45,0,48.67,0,2.18.28,4.86,1.53,6.45,8.75,11.18,9.67,15.82,5,27.36,7.09,11.14,15.22,8,24.24,2.62,16.84-10.06,30.26-23.6,41.36-39.47,12.71-18.16,24.48-37,37.39-55,24-33.55,55.2-54.67,98.16-54.69,45.62,0,77.5,23.58,98.92,61,37.48,65.46,37.71,133.52,5.45,200.83-35.29,73.65-95.91,119.28-171.45,146.17-72,25.62-146.18,29.14-221.44,20.41-5.74-.67-11.67.38-17.52.53-3.62.09-7.31.43-10.86-.1-19.35-2.87-38.65-6.05-58-9-44-6.72-88.12-13.14-132.11-20.21-9-1.45-17.87-4.73-26.39-8.17-2.9-1.17-4.53-5.45-6.74-8.31,3.15-2.3,6.29-6.56,9.45-6.58,15.45-.06,31,.18,46.35,1.86,30.26,3.3,60.43,7.4,90.58,11.63,16.3,2.29,32.42,5.9,48.73,8.21,9.19,1.3,18.62.81,27.87,1.82a76.48,76.48,0,0,1,16.08,4c5.71,1.93,11,6,16.77,6.68,74.23,8.87,147.52,5.71,218.32-20.67C743.69,821.83,798,781.07,830.62,716.24c33.08-65.82,33.64-132.27-5.65-196-21.6-35-53.71-53.34-96.49-47.26-25.84,3.67-46.9,16.4-62.67,36.74-13.56,17.49-25.75,36.07-38.1,54.47-18.43,27.43-40.11,50.75-71.79,63.37C550.68,629.7,547.48,636.92,542.48,642.76Zm-92.87-26.89c2.67-11.38,5-21.61,7.5-31.81.37-1.54.92-3.85,2-4.3,8.24-3.39,6.45-10.46,6.51-16.84.07-7.27.67-14.62-.11-21.81-1.2-11,5.4-24-7.64-32.32-.78-.49-.89-2.48-.82-3.75.8-14.54.46-29.3,3.08-43.51,1.37-7.46,7.9-14,12.23-20.87,1.68-2.66,4.93-4.88,5.41-7.66,4.91-28.4,8.08-56.77,4.14-85.79-3.68-27.1-8.74-54.32-4.09-81.93.74-4.43,1.14-8.93,1.86-14.71-4.72,1.34-8.16,2.21-11.52,3.3-25.15,8.19-47.35,21.52-68.06,37.89-72.85,57.6-99.2,139-72.27,223.22C346.56,573.49,388.18,604.19,449.61,615.87Zm76.74-170.31c11.81-10,21.49-18.41,31.46-26.49,24.86-20.15,47.58-42.21,62.72-70.86,11.81-22.37,15-45.2.89-67.95-17.82-28.79-72.17-46.91-104.63-34.85a36.7,36.7,0,0,0,.34,4.73,205.49,205.49,0,0,1,1.64,71.08c-5.52,36.51-7.89,73,.84,109.39C520.78,435.48,523.75,439.92,526.35,445.56Z" transform="translate(-4.55 -4.09)"/></svg>