<svg id="Ebene_1" data-name="Ebene 1" xmlns="http://www.w3.org/2000/svg" viewBox="0 0 989.43 989.4"><defs><style>.cls-1{fill:#7fc8f8;}</style></defs><path class="cls-1" d="M994,499.2C993.83,773,772.58,993.72,498.44,993.49,224.83,993.25,4.12,771.6,4.55,497.49,5,224.49,226.67,3.78,500.16,4.09,773.35,4.39,994.12,225.75,994,499.2ZM965,499c.34-256.6-208.3-465.43-465.35-465.78-256.78-.35-465.72,208.14-466,465S241.5,964,498.44,964.52C755.69,965,964.69,756.48,965,499Z" transform="translate(-4.55 -4.09)"/><path class="cls-1" d="M683.44,106.1,854.82,255.5c-4.35.35-7.07.75-9.8.76-20.2.05-40.4.18-60.59-.07-5.57-.07-8.24,1.39-9.25,7.35C744.66,442.73,601.41,570,428.54,603.81q-121.87,23.84-240.07-14.9c-4.93-1.62-12.74-1.88-10.9-10s9.07-5.06,14.16-4.34c159.44,22.69,307.59-67.27,377.08-205.63a389.78,389.78,0,0,0,34.9-103c.54-2.81.68-5.7,1.11-9.54H511.06Z" transform="translate(-4.55 -4.09)"/><path class="cls-1" d="M796.73,817.28H709.5V807q0-167.86.22-335.74a26.94,26.94,0,0,1,5.09-15.18c38.37-50.53,65.3-106.32,79-168.38a22.82,22.82,0,0,1,1.22-3.78c.21-.49.85-.81,1.71-1.59Z" transform="translate(-4.55 -4.09)"/><path class="cls-1" d="M663.11,817.33H576.89c-.19-3.71-.49-6.92-.49-10.13,0-74.45.06-148.91-.16-223.37,0-6.73,2.18-10.3,7.92-14.12,26.67-17.7,52.81-36.2,79-54.28Z" transform="translate(-4.55 -4.09)"/><path class="cls-1" d="M443.74,817V625.88L530.4,598.5V817Z" transform="translate(-4.55 -4.09)"/><path class="cls-1" d="M264.16,817.3H177.62V611l86.54,20.71Z" transform="translate(-4.55 -4.09)"/><path class="cls-1" d="M310.92,636.59l86.27-3.19V817.33H310.92Z" transform="translate(-4.55 -4.09)"/></svg>