<svg id="Ebene_1" data-name="Ebene 1" xmlns="http://www.w3.org/2000/svg" viewBox="0 0 989.42 989.4"><defs><style>.cls-1{fill:#7fc8f8;}</style></defs><path class="cls-1" d="M994,499.39c-.31,273.89-221.52,494.39-495.73,494.1C224.7,993.2,4.07,771.46,4.55,497.3,5,224.34,226.83,3.7,500.35,4.09,773.51,4.47,994.28,226,994,499.39Zm-29-.22c.64-256.42-208-465.46-465.14-466C243.54,32.67,34.7,240.44,33.67,497c-1,257.29,207.24,466.87,464.56,467.49S964.39,756.89,965,499.17Z" transform="translate(-4.55 -4.09)"/><path class="cls-1" d="M908.44,396.23c-1.61,26.65-13.24,50.09-25.28,73.15C852.08,529,805.37,574.56,750,611c-46.37,30.5-94.68,58-142.11,86.94-36.5,22.23-72,45.82-102.26,76.4-26.48,26.76-47.59,57.36-57.68,93.61-12.24,44-63.44,50.77-91.83,21.61-82-84.18-165.7-166.65-248.95-249.58C90.34,623.18,86.26,604.08,93.3,581.9c24.35-76.8,72.23-136.61,137.23-182,47.08-32.88,97.59-60.81,145.93-92,32.75-21.1,65.46-42.54,96.22-66.37,38.78-30,65.45-69.52,80.43-116.63C565,87.55,606.93,81.22,631.42,98.25a67.66,67.66,0,0,1,8.93,7.84q126.09,126,252.14,252C903.07,368.68,909.91,380.53,908.44,396.23ZM602.07,140.64l-3.81,11.11c-14.87,43.43-40,80.35-72.55,112.23-34.49,33.77-74.85,59.67-115.91,84.6-47.46,28.83-95.65,56.62-141.65,87.64C211,474.77,167.38,525.4,144,591.62c-2.41,6.79-1.66,11,3.63,16.24Q269,728.69,390,850c2,2,4.25,3.9,6.43,5.89a13.13,13.13,0,0,0,1.6-2.08c.74-1.83,1.42-3.7,2.06-5.57,13.94-41.09,36.71-76.61,66.81-107.79C505,700.93,551,672.28,597.39,644.09c45.2-27.44,91.08-54,134.75-83.7,55.83-38,98.7-87.56,122.27-152.19,3.16-8.67,2-14-4.63-20.57Q730,268.65,610.88,149.07C608.37,146.56,605.76,144.16,602.07,140.64Z" transform="translate(-4.55 -4.09)"/><path class="cls-1" d="M585.49,573.8c2.42,2.07,6.5,5.35,10.34,8.89,5,4.58,5.44,10,.9,14.86-4.15,4.45-9.35,4.58-14.15.58-4.06-3.36-7.91-7-12.49-11-3.72,2.84-7.27,5.6-10.86,8.3-25,18.83-60,18.39-81.59-1-11.54-10.38-12.73-22.21-3.14-30.75,5.75-5.12,12.14-6.66,19.23-3.3A122.48,122.48,0,0,1,505.89,567c15.63,9.7,26.37,8.82,40.82-3.89l-42.14-47.46c-21.11,4.57-39.85,11.36-58.84,12.2-42.86,1.88-67.45-32.1-53.9-72.84,4.41-13.27,12-25.49,18.56-39.1-3.87-3.9-10.56-9.27-3.65-17,6.61-7.35,12.47-1.81,17.89,2.53,8.25-5.1,16.11-10.57,24.51-15,12.29-6.52,25.63-8.49,39.45-6.75,15.35,1.92,27.35,14.37,26.38,27.23-.69,9.07-6.41,14.72-15.55,14.13-6.2-.4-12.3-2.28-18.47-3.38-11.62-2.05-23-2.74-32.47,7.39,12.64,14.29,24.85,28.53,37.74,42.13,1.62,1.71,7.27,1.08,10.28-.23,16.45-7.18,32.93-13.71,51.38-13.22,19.64.51,35.92,8.36,49.18,22.42,13.58,14.4,16.12,32,9.93,49.88C601.55,541.78,593.39,556.57,585.49,573.8Zm-67.4-69.1,41.73,45.41c14.86-17,17.54-33.53,8.19-44.88C556.88,491.71,540.15,491.33,518.09,504.7Zm-83.21-66.45c-13.73,14.32-16.32,30.41-7.39,40.93,9.68,11.41,28,11.34,44.76-.92Z" transform="translate(-4.55 -4.09)"/><path class="cls-1" d="M637.82,226.79c-2.16,5.19-3,8.47-4.71,11.09-27.31,40.64-59.54,76.77-99.42,105.47-4.15,3-11.87,3.18-17.06,1.67-2.78-.81-4.79-7.93-5.09-12.34-.19-2.83,2.72-6.81,5.36-8.74,37.82-27.67,68.51-62,94.65-100.6,4.11-6.07,9.56-8.94,16-6.19C631.64,218.92,634.52,223.57,637.82,226.79Z" transform="translate(-4.55 -4.09)"/><path class="cls-1" d="M489.51,667c-3.68,4.84-5.83,9.49-9.45,12.15-35.78,26.4-64.76,59.09-90.33,95.19-3,4.3-9,8.64-13.87,9.08-10.51,1-15.74-11.24-9.1-20.9,19.31-28.11,40.27-54.92,66-77.59,11.13-9.82,22.57-19.38,34.6-28.05,3.21-2.31,9.67-2.32,13.59-.75C484.31,657.48,486.2,662.56,489.51,667Z" transform="translate(-4.55 -4.09)"/></svg>